<svg width="53" height="52" fill="none" xmlns="http://www.w3.org/2000/svg"><path d="M28.349 1.156l6.148 12.556 13.748 2.013c1.684.248 2.36 2.334 1.138 3.532l-9.948 9.773 2.349 13.799c.29 1.692-1.473 2.98-2.98 2.182l-12.296-6.518-12.297 6.518c-1.507.798-3.27-.49-2.98-2.182l2.35-13.8-9.948-9.772c-1.222-1.198-.547-3.284 1.138-3.532l13.747-2.013 6.148-12.556c.754-1.54 2.93-1.54 3.683 0z" fill="url(#paint0_linear_12_56)"/><path d="M39.758 43.639a.428.428 0 01-.212-.057l-13.038-6.91-13.04 6.91a.444.444 0 01-.211.057.486.486 0 01-.357-.175.43.43 0 01-.095-.365l2.488-14.632L4.748 18.104a.443.443 0 01-.117-.472.438.438 0 01.368-.315l14.58-2.137 6.516-13.31a.434.434 0 01.413-.259c.134 0 .306.045.413.259l6.516 13.31 14.579 2.137a.43.43 0 01.368.315c.04.123.05.309-.117.472l-10.55 10.363L40.204 43.1a.42.42 0 01-.095.365.486.486 0 01-.357.175h.005z" fill="url(#paint1_linear_12_56)"/><path d="M13.58 29.03l-9.947-9.773a2.054 2.054 0 01-.609-1.682h-.016c-.017.012 0 3.751 0 3.751h.016a2.043 2.043 0 00.608 1.676l9.402 9.233.546-3.217v.012z" fill="url(#paint2_linear_12_56)"/><path d="M41.8 43.397c-.139 1.389-1.668 2.317-2.996 1.614l-12.296-6.518-12.297 6.518c-1.317.697-2.829-.203-2.996-1.57v3.307c-.15 1.608 1.54 2.79 2.996 2.013l12.007-6.365.357-.113 12.224 6.478c1.456.77 3.141-.405 2.996-2.013v-3.351h.005z" fill="url(#paint3_linear_12_56)"/><path d="M49.985 17.575a2.037 2.037 0 01-.608 1.682L39.43 29.03l.547 3.216 9.401-9.233c.48-.472.664-1.085.608-1.665l.011-.01v-3.751h-.016l.005-.012z" fill="url(#paint4_linear_12_56)"/><path style="mix-blend-mode:screen" d="M48.384 17.632a.438.438 0 00-.368-.315L33.437 15.18 26.915 1.87a.434.434 0 00-.413-.259.434.434 0 00-.413.259l-6.516 13.31-14.574 2.137a.43.43 0 00-.368.315.443.443 0 00.117.472l3.448 3.385c5.675-2.688 13.274-3.11 20.85-.607 4.045 1.338 7.61 3.351 10.506 5.786l8.715-8.564a.443.443 0 00.117-.472z" fill="url(#paint5_radial_12_56)"/><g filter="url(#filter0_d_12_56)"><path d="M48.267 18.104a.443.443 0 00.117-.472.438.438 0 00-.368-.315L33.437 15.18 26.915 1.87a.434.434 0 00-.413-.259.434.434 0 00-.413.259l-6.516 13.31-14.574 2.137a.43.43 0 00-.368.315.443.443 0 00.117.472l10.55 10.363L12.81 43.1a.42.42 0 00.095.365.49.49 0 00.357.175.42.42 0 00.212-.057l13.04-6.91 13.038 6.91c.073.04.145.057.212.057a.486.486 0 00.357-.175.43.43 0 00.095-.365l-2.488-14.632 10.55-10.363h-.011zm-8.458 25.102s-.045.033-.05.033l-13.251-7.017-13.251 7.017s-.034-.01-.056-.073l2.527-14.84L5.022 17.818s-.028-.028-.017-.062.017-.033.05-.04l14.785-2.164 6.612-13.507c.017-.028.017-.033.05-.033.034 0 .04 0 .05.033l6.612 13.501 14.785 2.165c.033 0 .033 0 .05.04.011.033.006.039-.017.061l-10.695 10.51L39.809 43.2v.006z" fill="url(#paint6_linear_12_56)"/></g><defs><linearGradient id="paint0_linear_12_56" x1="23.467" y1="1.892" x2="32.02" y2="45.93" gradientUnits="userSpaceOnUse"><stop stop-color="#FDD733"/><stop offset="1" stop-color="#F9AB21"/></linearGradient><linearGradient id="paint1_linear_12_56" x1="25.342" y1="5.666" x2="28.849" y2="41.581" gradientUnits="userSpaceOnUse"><stop stop-color="#FDE265"/><stop offset="1" stop-color="#FDD733"/></linearGradient><linearGradient id="paint2_linear_12_56" x1="8.358" y1="13.431" x2="8.154" y2="44.06" gradientUnits="userSpaceOnUse"><stop stop-color="#EA8D07"/><stop offset="1" stop-color="#B26500"/></linearGradient><linearGradient id="paint3_linear_12_56" x1="26.714" y1="13.555" x2="26.516" y2="44.184" gradientUnits="userSpaceOnUse"><stop stop-color="#EA8D07"/><stop offset="1" stop-color="#B26500"/></linearGradient><linearGradient id="paint4_linear_12_56" x1="44.791" y1="13.673" x2="44.587" y2="44.302" gradientUnits="userSpaceOnUse"><stop stop-color="#EA8D07"/><stop offset="1" stop-color="#B26500"/></linearGradient><linearGradient id="paint6_linear_12_56" x1="26.257" y1="2.443" x2="26.931" y2="43.599" gradientUnits="userSpaceOnUse"><stop stop-color="#FDD733"/><stop offset="1" stop-color="#FBC12A"/></linearGradient><radialGradient id="paint5_radial_12_56" cx="0" cy="0" r="1" gradientUnits="userSpaceOnUse" gradientTransform="matrix(24.9699 0 0 25.1661 29.542 32.244)"><stop stop-color="#FCED97"/><stop offset="1"/></radialGradient><filter id="filter0_d_12_56" x=".607" y="1.611" width="51.801" height="50.027" filterUnits="userSpaceOnUse" color-interpolation-filters="sRGB"><feFlood flood-opacity="0" result="BackgroundImageFix"/><feColorMatrix in="SourceAlpha" values="0 0 0 0 0 0 0 0 0 0 0 0 0 0 0 0 0 0 127 0" result="hardAlpha"/><feOffset dy="4"/><feGaussianBlur stdDeviation="2"/><feComposite in2="hardAlpha" operator="out"/><feColorMatrix values="0 0 0 0 0 0 0 0 0 0 0 0 0 0 0 0 0 0 0.25 0"/><feBlend in2="BackgroundImageFix" result="effect1_dropShadow_12_56"/><feBlend in="SourceGraphic" in2="effect1_dropShadow_12_56" result="shape"/></filter></defs></svg>